<svg xmlns="http://www.w3.org/2000/svg" width="38" height="38" fill="none" viewBox="0 0 38 38">
    <path fill="#9D9D9D" d="M14.622 27.907a3.883 3.883 0 0 1-2.758-1.14 3.917 3.917 0 0 1 0-5.525l1.474 1.474a1.836 1.836 0 0 0 0 2.584c.692.692 1.892.692 2.584 0l1.474 1.475a3.955 3.955 0 0 1-2.774 1.132z"/>
    <path fill="#9D9D9D" d="M13.536 32.703a7.612 7.612 0 0 1-5.404-2.235 7.588 7.588 0 0 1-2.242-5.403c0-1.946.722-3.777 2.037-5.199l-.015-.015L20.763 7.015A5.755 5.755 0 0 1 24.8 5.373c1.55 0 3.002.6 4.096 1.695a5.748 5.748 0 0 1 1.695 4.096c0 1.452-.532 2.82-1.497 3.884l.007.008-.167.167-.038.038L17.016 27.14l-1.474-1.475L27.497 13.71a3.695 3.695 0 0 0 1.01-2.553c0-.988-.387-1.923-1.086-2.622-1.399-1.399-3.846-1.399-5.252 0L9.6 21.12l.007.008a5.53 5.53 0 0 0-1.626 3.937c0 1.49.578 2.88 1.626 3.937a5.571 5.571 0 0 0 7.859.007l13.17-13.17 1.475 1.474L18.666 30.75l-.008-.008a7.63 7.63 0 0 1-5.122 1.96z"/>
    <path fill="#9D9D9D" d="M22.994 10.107L11.86 21.24l1.472 1.473 11.135-11.135-1.473-1.472z"/>
</svg>
