<svg xmlns="http://www.w3.org/2000/svg" width="28" height="28" fill="none" viewBox="0 0 28 28">
    <path fill="#fff" d="M15.167 22.097V24.5h3.5a1.167 1.167 0 1 1 0 2.333H9.333a1.167 1.167 0 1 1 0-2.333h3.5v-2.403a9.333 9.333 0 0 1-8.166-9.264 1.167 1.167 0 0 1 2.333 0 7 7 0 0 0 14 0 1.167 1.167 0 1 1 2.333 0 9.333 9.333 0 0 1-8.166 9.264zM14 1.167a4.666 4.666 0 0 1 4.667 4.666v7a4.667 4.667 0 0 1-9.334 0v-7A4.667 4.667 0 0 1 14 1.167zM14 3.5a2.333 2.333 0 0 0-2.333 2.333v7a2.333 2.333 0 1 0 4.666 0v-7A2.333 2.333 0 0 0 14 3.5z"/>
</svg>
